<svg width="299" height="32" viewBox="0 0 299 32" fill="none" xmlns="http://www.w3.org/2000/svg">
<path d="M0.25 7.61932V1.90909H24.8381V7.61932H16.017V31H9.08523V7.61932H0.25ZM35.218 18.5568V31H28.272V1.90909H34.9908V13.1875H35.2322C35.7247 11.8428 36.5296 10.7917 37.647 10.0341C38.7739 9.27652 40.1518 8.89773 41.7805 8.89773C43.3146 8.89773 44.6499 9.23864 45.7862 9.92045C46.9226 10.5928 47.8033 11.5445 48.4283 12.7756C49.0627 14.0066 49.3752 15.446 49.3658 17.0938V31H42.4197V18.4574C42.4292 17.2453 42.1262 16.2983 41.5107 15.6165C40.8951 14.9347 40.0286 14.5938 38.9112 14.5938C38.1821 14.5938 37.5381 14.7547 36.9794 15.0767C36.4302 15.3892 35.9993 15.839 35.6868 16.4261C35.3838 17.0133 35.2275 17.7235 35.218 18.5568ZM63.9006 31.4119C61.6184 31.4119 59.6487 30.9621 57.9915 30.0625C56.3438 29.1534 55.0748 27.8608 54.1847 26.1847C53.304 24.4991 52.8636 22.4962 52.8636 20.1761C52.8636 17.9223 53.3087 15.9527 54.1989 14.267C55.089 12.572 56.3438 11.2557 57.9631 10.3182C59.5824 9.37121 61.4905 8.89773 63.6875 8.89773C65.2405 8.89773 66.661 9.1392 67.9489 9.62216C69.2367 10.1051 70.3494 10.8201 71.2869 11.767C72.2244 12.714 72.9536 13.8835 73.4744 15.2756C73.9953 16.6581 74.2557 18.2443 74.2557 20.0341V21.767H55.2926V17.733H67.7926C67.7831 16.9943 67.608 16.3362 67.267 15.7585C66.9261 15.1809 66.4574 14.7311 65.8608 14.4091C65.2737 14.0777 64.5966 13.9119 63.8295 13.9119C63.053 13.9119 62.357 14.0871 61.7415 14.4375C61.1259 14.7784 60.6383 15.2472 60.2784 15.8438C59.9186 16.4309 59.7292 17.0985 59.7102 17.8466V21.9517C59.7102 22.8419 59.8854 23.6231 60.2358 24.2955C60.5862 24.9583 61.0833 25.4744 61.7273 25.8438C62.3712 26.2131 63.1383 26.3977 64.0284 26.3977C64.6439 26.3977 65.2027 26.3125 65.7045 26.142C66.2064 25.9716 66.6373 25.7206 66.9972 25.3892C67.357 25.0578 67.6269 24.6506 67.8068 24.1676L74.1847 24.3523C73.9195 25.7822 73.3371 27.0275 72.4375 28.0881C71.5473 29.1392 70.3778 29.9583 68.929 30.5455C67.4801 31.1231 65.804 31.4119 63.9006 31.4119ZM77.8033 31V1.90909H89.9339C92.112 1.90909 93.9349 2.21686 95.4027 2.83239C96.88 3.44792 97.9879 4.30966 98.7266 5.41761C99.4747 6.52557 99.8487 7.80871 99.8487 9.26705C99.8487 10.375 99.6167 11.3646 99.1527 12.2358C98.6887 13.0975 98.0495 13.8125 97.2351 14.3807C96.4207 14.9489 95.4785 15.3466 94.4084 15.5739V15.858C95.5826 15.9148 96.6669 16.232 97.6612 16.8097C98.665 17.3873 99.4699 18.1922 100.076 19.2244C100.682 20.2472 100.985 21.4593 100.985 22.8608C100.985 24.4233 100.587 25.8201 99.7919 27.0511C98.9964 28.2727 97.8459 29.2386 96.3402 29.9489C94.8345 30.6496 93.0069 31 90.8572 31H77.8033ZM84.8345 25.3324H89.1811C90.7057 25.3324 91.8279 25.0436 92.5476 24.4659C93.2768 23.8883 93.6413 23.0833 93.6413 22.0511C93.6413 21.303 93.4661 20.6591 93.1158 20.1193C92.7654 19.5701 92.2682 19.1487 91.6243 18.8551C90.9804 18.5521 90.2086 18.4006 89.3089 18.4006H84.8345V25.3324ZM84.8345 13.8693H88.7266C89.4936 13.8693 90.1754 13.7415 90.772 13.4858C91.3686 13.2301 91.8326 12.8608 92.1641 12.3778C92.505 11.8949 92.6754 11.3125 92.6754 10.6307C92.6754 9.6553 92.3298 8.88826 91.6385 8.32955C90.9472 7.77083 90.0144 7.49148 88.8402 7.49148H84.8345V13.8693ZM111.312 1.90909V31H104.366V1.90909H111.312ZM121.884 31.3693C120.491 31.3693 119.256 31.1373 118.176 30.6733C117.106 30.1998 116.259 29.4896 115.634 28.5426C115.018 27.5862 114.71 26.3883 114.71 24.9489C114.71 23.7367 114.923 22.714 115.349 21.8807C115.776 21.0473 116.363 20.3703 117.111 19.8494C117.859 19.3286 118.721 18.9356 119.696 18.6705C120.671 18.3958 121.713 18.2112 122.821 18.1165C124.062 18.0028 125.061 17.8845 125.818 17.7614C126.576 17.6288 127.125 17.4441 127.466 17.2074C127.816 16.9612 127.991 16.6155 127.991 16.1705V16.0994C127.991 15.3703 127.741 14.8068 127.239 14.4091C126.737 14.0114 126.06 13.8125 125.207 13.8125C124.289 13.8125 123.55 14.0114 122.991 14.4091C122.433 14.8068 122.078 15.3561 121.926 16.0568L115.52 15.8295C115.709 14.5038 116.197 13.3201 116.983 12.2784C117.778 11.2273 118.867 10.4034 120.25 9.80682C121.642 9.20076 123.313 8.89773 125.264 8.89773C126.656 8.89773 127.939 9.06345 129.114 9.39489C130.288 9.71686 131.311 10.1903 132.182 10.8153C133.053 11.4309 133.725 12.1884 134.199 13.0881C134.682 13.9877 134.923 15.0152 134.923 16.1705V31H128.389V27.9602H128.219C127.83 28.6989 127.333 29.3239 126.727 29.8352C126.131 30.3466 125.425 30.7301 124.611 30.9858C123.806 31.2415 122.897 31.3693 121.884 31.3693ZM124.028 26.8239C124.777 26.8239 125.449 26.6723 126.045 26.3693C126.652 26.0663 127.134 25.6496 127.494 25.1193C127.854 24.5795 128.034 23.9545 128.034 23.2443V21.1705C127.835 21.2746 127.594 21.3693 127.31 21.4545C127.035 21.5398 126.732 21.6203 126.401 21.696C126.069 21.7718 125.728 21.8381 125.378 21.8949C125.027 21.9517 124.691 22.0038 124.369 22.0511C123.716 22.1553 123.157 22.3163 122.693 22.5341C122.239 22.7519 121.888 23.036 121.642 23.3864C121.405 23.7273 121.287 24.1345 121.287 24.608C121.287 25.3277 121.543 25.8769 122.054 26.2557C122.575 26.6345 123.233 26.8239 124.028 26.8239ZM139.17 31V9.18182H146.116V31H139.17ZM142.651 6.6392C141.675 6.6392 140.837 6.31723 140.136 5.6733C139.436 5.01989 139.085 4.2339 139.085 3.31534C139.085 2.40625 139.436 1.62973 140.136 0.985795C140.837 0.332385 141.675 0.00568008 142.651 0.00568008C143.635 0.00568008 144.473 0.332385 145.165 0.985795C145.866 1.62973 146.216 2.40625 146.216 3.31534C146.216 4.2339 145.866 5.01989 145.165 5.6733C144.473 6.31723 143.635 6.6392 142.651 6.6392ZM169.586 15.8438L163.208 16.0142C163.142 15.5597 162.962 15.1572 162.668 14.8068C162.375 14.447 161.991 14.1676 161.518 13.9688C161.054 13.7604 160.514 13.6562 159.898 13.6562C159.094 13.6562 158.407 13.8172 157.839 14.1392C157.28 14.4612 157.005 14.8968 157.015 15.446C157.005 15.8722 157.176 16.2415 157.526 16.554C157.886 16.8665 158.525 17.1174 159.444 17.3068L163.648 18.1023C165.826 18.5189 167.446 19.2102 168.506 20.1761C169.576 21.142 170.116 22.4205 170.126 24.0114C170.116 25.5076 169.671 26.8097 168.79 27.9176C167.919 29.0256 166.726 29.8873 165.211 30.5028C163.696 31.1089 161.963 31.4119 160.012 31.4119C156.897 31.4119 154.439 30.7727 152.64 29.4943C150.85 28.2064 149.827 26.483 149.572 24.3239L156.433 24.1534C156.584 24.9489 156.977 25.5549 157.612 25.9716C158.246 26.3883 159.056 26.5966 160.04 26.5966C160.931 26.5966 161.655 26.4309 162.214 26.0994C162.772 25.768 163.057 25.3277 163.066 24.7784C163.057 24.286 162.839 23.893 162.413 23.5994C161.987 23.2964 161.319 23.0597 160.41 22.8892L156.603 22.1648C154.415 21.767 152.787 21.0331 151.717 19.9631C150.647 18.8835 150.116 17.5104 150.126 15.8438C150.116 14.3854 150.504 13.1402 151.29 12.108C152.076 11.0663 153.194 10.2708 154.643 9.72159C156.092 9.17235 157.801 8.89773 159.771 8.89773C162.725 8.89773 165.055 9.51799 166.759 10.7585C168.464 11.9896 169.406 13.6847 169.586 15.8438ZM183.744 31.4119C181.462 31.4119 179.492 30.9621 177.835 30.0625C176.188 29.1534 174.919 27.8608 174.028 26.1847C173.148 24.4991 172.707 22.4962 172.707 20.1761C172.707 17.9223 173.152 15.9527 174.043 14.267C174.933 12.572 176.188 11.2557 177.807 10.3182C179.426 9.37121 181.334 8.89773 183.531 8.89773C185.084 8.89773 186.505 9.1392 187.793 9.62216C189.08 10.1051 190.193 10.8201 191.131 11.767C192.068 12.714 192.797 13.8835 193.318 15.2756C193.839 16.6581 194.099 18.2443 194.099 20.0341V21.767H175.136V17.733H187.636C187.627 16.9943 187.452 16.3362 187.111 15.7585C186.77 15.1809 186.301 14.7311 185.705 14.4091C185.117 14.0777 184.44 13.9119 183.673 13.9119C182.897 13.9119 182.201 14.0871 181.585 14.4375C180.97 14.7784 180.482 15.2472 180.122 15.8438C179.762 16.4309 179.573 17.0985 179.554 17.8466V21.9517C179.554 22.8419 179.729 23.6231 180.08 24.2955C180.43 24.9583 180.927 25.4744 181.571 25.8438C182.215 26.2131 182.982 26.3977 183.872 26.3977C184.488 26.3977 185.046 26.3125 185.548 26.142C186.05 25.9716 186.481 25.7206 186.841 25.3892C187.201 25.0578 187.471 24.6506 187.651 24.1676L194.028 24.3523C193.763 25.7822 193.181 27.0275 192.281 28.0881C191.391 29.1392 190.222 29.9583 188.773 30.5455C187.324 31.1231 185.648 31.4119 183.744 31.4119Z" fill="white"/>
<path d="M224.053 12.4489H216.951C216.856 11.7197 216.662 11.0616 216.369 10.4744C216.075 9.88731 215.687 9.38542 215.204 8.96875C214.721 8.55208 214.148 8.23485 213.485 8.01705C212.832 7.78977 212.107 7.67614 211.312 7.67614C209.901 7.67614 208.684 8.02178 207.661 8.71307C206.648 9.40436 205.867 10.4034 205.317 11.7102C204.778 13.017 204.508 14.5985 204.508 16.4545C204.508 18.3864 204.782 20.0057 205.332 21.3125C205.89 22.6098 206.672 23.59 207.675 24.2528C208.689 24.9062 209.887 25.233 211.269 25.233C212.046 25.233 212.751 25.1335 213.386 24.9347C214.03 24.7358 214.593 24.447 215.076 24.0682C215.568 23.6799 215.971 23.2112 216.283 22.6619C216.605 22.1032 216.828 21.4735 216.951 20.7727L224.053 20.8153C223.93 22.1032 223.556 23.3722 222.931 24.6222C222.316 25.8722 221.468 27.0133 220.388 28.0455C219.309 29.0682 217.993 29.8826 216.44 30.4886C214.896 31.0947 213.125 31.3977 211.127 31.3977C208.495 31.3977 206.137 30.8201 204.053 29.6648C201.979 28.5 200.341 26.8049 199.138 24.5795C197.936 22.3542 197.335 19.6458 197.335 16.4545C197.335 13.2538 197.945 10.5407 199.167 8.31534C200.388 6.08996 202.041 4.39962 204.124 3.24432C206.208 2.08901 208.542 1.51136 211.127 1.51136C212.888 1.51136 214.517 1.75758 216.013 2.25C217.51 2.73295 218.826 3.44318 219.962 4.38068C221.099 5.30871 222.022 6.44981 222.732 7.80398C223.442 9.15814 223.883 10.7064 224.053 12.4489ZM238.261 31.4119C235.97 31.4119 234 30.9432 232.352 30.0057C230.714 29.0587 229.45 27.7424 228.56 26.0568C227.679 24.3617 227.239 22.3968 227.239 20.1619C227.239 17.9176 227.679 15.9527 228.56 14.267C229.45 12.572 230.714 11.2557 232.352 10.3182C234 9.37121 235.97 8.89773 238.261 8.89773C240.553 8.89773 242.518 9.37121 244.156 10.3182C245.804 11.2557 247.068 12.572 247.949 14.267C248.839 15.9527 249.284 17.9176 249.284 20.1619C249.284 22.3968 248.839 24.3617 247.949 26.0568C247.068 27.7424 245.804 29.0587 244.156 30.0057C242.518 30.9432 240.553 31.4119 238.261 31.4119ZM238.304 26.1705C239.137 26.1705 239.843 25.9148 240.42 25.4034C240.998 24.892 241.438 24.1818 241.741 23.2727C242.054 22.3636 242.21 21.3125 242.21 20.1193C242.21 18.9072 242.054 17.8466 241.741 16.9375C241.438 16.0284 240.998 15.3182 240.42 14.8068C239.843 14.2955 239.137 14.0398 238.304 14.0398C237.442 14.0398 236.713 14.2955 236.116 14.8068C235.529 15.3182 235.08 16.0284 234.767 16.9375C234.464 17.8466 234.312 18.9072 234.312 20.1193C234.312 21.3125 234.464 22.3636 234.767 23.2727C235.08 24.1818 235.529 24.892 236.116 25.4034C236.713 25.9148 237.442 26.1705 238.304 26.1705ZM260.811 31.3125C259.201 31.3125 257.738 30.8958 256.422 30.0625C255.106 29.2292 254.054 27.9792 253.268 26.3125C252.482 24.6458 252.089 22.5767 252.089 20.1051C252.089 17.5388 252.497 15.4271 253.311 13.7699C254.125 12.1127 255.191 10.8864 256.507 10.0909C257.833 9.29545 259.258 8.89773 260.783 8.89773C261.929 8.89773 262.909 9.09659 263.723 9.49432C264.537 9.88258 265.21 10.3845 265.74 11C266.27 11.6155 266.673 12.2547 266.947 12.9176H267.089V1.90909H274.036V31H267.161V27.4631H266.947C266.654 28.1354 266.237 28.7652 265.697 29.3523C265.158 29.9394 264.481 30.4129 263.666 30.7727C262.861 31.1326 261.91 31.3125 260.811 31.3125ZM263.226 25.9006C264.069 25.9006 264.788 25.6638 265.385 25.1903C265.982 24.7074 266.441 24.0303 266.763 23.1591C267.085 22.2879 267.246 21.2652 267.246 20.0909C267.246 18.8977 267.085 17.8703 266.763 17.0085C266.45 16.1468 265.991 15.4839 265.385 15.0199C264.788 14.5559 264.069 14.3239 263.226 14.3239C262.364 14.3239 261.635 14.5606 261.038 15.0341C260.442 15.5076 259.987 16.1752 259.675 17.0369C259.372 17.8987 259.22 18.9167 259.22 20.0909C259.22 21.2652 259.376 22.2879 259.689 23.1591C260.001 24.0303 260.451 24.7074 261.038 25.1903C261.635 25.6638 262.364 25.9006 263.226 25.9006ZM288.627 31.4119C286.345 31.4119 284.375 30.9621 282.718 30.0625C281.07 29.1534 279.801 27.8608 278.911 26.1847C278.031 24.4991 277.59 22.4962 277.59 20.1761C277.59 17.9223 278.035 15.9527 278.925 14.267C279.816 12.572 281.07 11.2557 282.69 10.3182C284.309 9.37121 286.217 8.89773 288.414 8.89773C289.967 8.89773 291.388 9.1392 292.675 9.62216C293.963 10.1051 295.076 10.8201 296.013 11.767C296.951 12.714 297.68 13.8835 298.201 15.2756C298.722 16.6581 298.982 18.2443 298.982 20.0341V21.767H280.019V17.733H292.519C292.51 16.9943 292.335 16.3362 291.994 15.7585C291.653 15.1809 291.184 14.7311 290.587 14.4091C290 14.0777 289.323 13.9119 288.556 13.9119C287.78 13.9119 287.084 14.0871 286.468 14.4375C285.853 14.7784 285.365 15.2472 285.005 15.8438C284.645 16.4309 284.456 17.0985 284.437 17.8466V21.9517C284.437 22.8419 284.612 23.6231 284.962 24.2955C285.313 24.9583 285.81 25.4744 286.454 25.8438C287.098 26.2131 287.865 26.3977 288.755 26.3977C289.371 26.3977 289.929 26.3125 290.431 26.142C290.933 25.9716 291.364 25.7206 291.724 25.3892C292.084 25.0578 292.353 24.6506 292.533 24.1676L298.911 24.3523C298.646 25.7822 298.064 27.0275 297.164 28.0881C296.274 29.1392 295.104 29.9583 293.656 30.5455C292.207 31.1231 290.531 31.4119 288.627 31.4119Z" fill="#87AE73"/>
</svg>
